<svg id="Layer_1" data-name="Layer 1" xmlns="http://www.w3.org/2000/svg" viewBox="0 0 1963 524"><defs><style>.cls-1{font-size:93.29px;font-family:FranklinGothic-HeavyItalic, Franklin Gothic Heavy;font-weight:800;font-style:italic;letter-spacing:-0.05em;}</style></defs><title>v3-logobwebv</title><path d="M1591.52,486.46H69.7A64.31,64.31,0,0,1,5.46,422.23V101.77A64.31,64.31,0,0,1,69.7,37.54H1605.89v25H69.7a39.28,39.28,0,0,0-39.24,39.23V422.23A39.28,39.28,0,0,0,69.7,461.46H1591.52Z"/><path d="M371.3,160.5,296,366.83H220L141.27,160.5h78.52L258.21,273q3.93,10,7,19.65L310,160.5Z"/><path d="M543.14,366.83H475.56a87.32,87.32,0,0,1-2.48-21.47Q453.87,370,414.92,370q-32,0-47.92-13.91T351.08,324.2q0-24.33,26.06-39.38t92.38-18.06v-3.48q0-10.12-5.43-13.45t-15.91-3.32q-24.54,0-27.39,16.77l-64.73-5.14q13.88-48.21,94.43-48.21a203,203,0,0,1,40.19,3.7q18.31,3.7,29,11.56T534,241.82q3.64,8.77,3.65,33.71V336.9Q537.63,354.43,543.14,366.83Zm-73.62-71.95q-45.34,4.08-45.35,24.63,0,13.92,18,13.91,11.39,0,19.39-5.74t8-25.4Z"/><path d="M732.81,366.83H661.86V270.09q0-11.94-4.36-15.27a17.56,17.56,0,0,0-10.94-3.33q-19.38,0-19.38,23v92.36H556.23V213.1H622v21.77q14.58-24.94,52.11-24.94,19.74,0,33.34,6.42T726.94,233q5.88,10.2,5.87,35.44Z"/><path d="M822.9,154v47.76H752V154Zm0,59.1V366.83H752V213.1Z"/><path d="M911.92,160.5V366.83H842V160.5Z"/><path d="M1000.94,160.5V366.83H931.06V160.5Z"/><path d="M1108.46,370q-45,0-71.49-23.81t-26.5-55.85q0-34.45,27.66-57.44t71.93-23q44.63,0,71.75,22.67t27.12,56.83q0,34.47-27.47,57.52T1108.46,370Zm1.06-36.58q16.55,0,20.19-14.59a125.1,125.1,0,0,0,3.64-30.45q0-21.61-5.15-31.14t-18.5-9.52q-12.27,0-18,9.82t-5.69,32.35q0,26.44,5.87,35T1109.52,333.42Z"/><path d="M1224.18,252.28l41-4.32q4,18.33,23,18.33c5.77,0,10.45-1.27,14.07-3.82a12,12,0,0,0,5.42-10.29,11,11,0,0,0-2.94-7.6,16.93,16.93,0,0,0-6.29-4.6q-3.35-1.32-11.52-1.32h-19.14V210.73H1284q12.9,0,16.6-3.92t3.69-8.13a10.71,10.71,0,0,0-4.61-8.82q-4.62-3.53-12.11-3.53-16.14,0-19.71,15.29l-38-5.1a47.55,47.55,0,0,1,22-29q16.77-10.2,39.71-10.19,25.83,0,41.5,10.28t15.68,27.44a26.49,26.49,0,0,1-6.63,17.93,32.48,32.48,0,0,1-16.89,10.29q28.36,7.35,28.36,31.46,0,19.2-17.23,29.83t-44.67,10.64Q1236.51,295.2,1224.18,252.28Z"/><path d="M1903.06-.26H1700.74A262.33,262.33,0,1,0,1963,262V59.68A60,60,0,0,0,1903.06-.26Zm-201.6,465.6c-112.69,0-204.06-91.37-204.06-204.06s91.37-204.06,204.06-204.06,204.06,91.37,204.06,204.06S1814.15,465.34,1701.46,465.34Zm219.36-350.26A52.45,52.45,0,1,1,1945,70.87,52.3,52.3,0,0,1,1920.82,115.08Z"/><text class="cls-1" transform="translate(1869.82 99.74) scale(0.85 1)">3</text><path d="M1795.5,187.81a3.75,3.75,0,0,1-1.55-2.59,92.95,92.95,0,0,0-184.43,0,3.76,3.76,0,0,1-1.56,2.59,40.1,40.1,0,0,0,12.23,70.93l52.55,161.33h57.07l52.46-161a40.1,40.1,0,0,0,13.23-71.21ZM1702.4,342l-37.23-98.54a3.6,3.6,0,0,1,4,1.22,40.1,40.1,0,0,0,64.31-.79,3.67,3.67,0,0,1,4.5-1.16Z"/></svg>